<svg width="129" height="125" viewBox="0 0 129 125" fill="none" xmlns="http://www.w3.org/2000/svg">
<path d="M55.2126 7.26608C58.5618 -1.12412 70.4382 -1.12414 73.7874 7.26605L83.7634 32.2573C85.1887 35.8278 88.5347 38.2651 92.3703 38.5268L119.188 40.3561C128.165 40.9684 131.83 52.1987 124.942 57.988L104.225 75.4013C101.298 77.861 100.03 81.7738 100.958 85.4824L107.527 111.754C109.716 120.505 100.113 127.452 92.4864 122.635L69.8399 108.332C66.578 106.272 62.422 106.272 59.1601 108.332L36.5136 122.635C28.8871 127.452 19.2842 120.505 21.4725 111.754L28.0424 85.4824C28.9699 81.7738 27.7018 77.861 24.7754 75.4013L4.05791 57.988C-2.82995 52.1987 0.83473 40.9684 9.81158 40.3561L36.6297 38.5268C40.4653 38.2651 43.8113 35.8278 45.2366 32.2573L55.2126 7.26608Z" fill="url(#paint0_linear_592_237)"/>
<defs>
<linearGradient id="paint0_linear_592_237" x1="148" y1="-15.9105" x2="-19.9959" y2="150.908" gradientUnits="userSpaceOnUse">
<stop/>
<stop offset="0.389069" stop-color="#2A2A2A"/>
<stop offset="0.564657" stop-color="#3D3D3D"/>
<stop offset="0.948078" stop-color="#666666"/>
</linearGradient>
</defs>
</svg>
