<svg width="12" height="11" viewBox="0 0 12 11" fill="none" xmlns="http://www.w3.org/2000/svg">
<path d="M0 0H9C10.6569 0 12 1.34315 12 3V11H3C1.34315 11 0 9.65685 0 8V0Z" fill="#63ADF2"/>
<path d="M7.09723 4.94C7.24389 4.92667 7.34389 4.92 7.39723 4.92C7.45056 4.92 7.53723 4.93 7.65723 4.95C7.65056 5.15667 7.64723 5.42333 7.64723 5.75C7.64723 6.07667 7.65056 6.29 7.65723 6.39C7.55723 6.41 7.46056 6.42 7.36723 6.42C7.27389 6.42 7.18389 6.41333 7.09723 6.4L7.06723 6.05C6.70723 6.03667 6.41056 6.03 6.17723 6.03C5.94389 6.03 5.64723 6.03667 5.28723 6.05C5.28723 6.92333 5.31056 7.65333 5.35723 8.24C5.59056 8.26 5.92056 8.27 6.34723 8.27C6.78056 8.27 7.12056 8.25333 7.36723 8.22L7.39723 7.54C7.51056 7.52 7.61389 7.51 7.70723 7.51C7.80723 7.51 7.89056 7.51333 7.95723 7.52C7.96389 8.04 7.99389 8.53333 8.04723 9L7.99723 9.05C7.67056 9.01667 6.95389 9 5.84723 9C4.74723 9 4.16723 9.00333 4.10723 9.01C4.08723 8.91 4.07723 8.81667 4.07723 8.73C4.07723 8.63667 4.08389 8.54333 4.09723 8.45L4.44723 8.42C4.50723 7.38667 4.53723 6.45333 4.53723 5.62C4.53723 4.78 4.49723 3.97 4.41723 3.19L4.07723 3.16C4.06389 3.07333 4.05723 2.98333 4.05723 2.89C4.05723 2.79667 4.06723 2.7 4.08723 2.6C4.25389 2.60667 4.86389 2.61 5.91723 2.61C6.97056 2.61 7.64723 2.58 7.94723 2.52L7.99723 2.57C7.94389 3.15667 7.91389 3.63 7.90723 3.99C7.84056 3.99667 7.75723 4 7.65723 4C7.55723 4 7.45389 3.99 7.34723 3.97L7.31723 3.29C6.97723 3.27 6.62389 3.26 6.25723 3.26C5.89056 3.26 5.58723 3.27 5.34723 3.29C5.30723 3.71 5.28723 4.39667 5.28723 5.35C5.39389 5.35667 5.61056 5.36 5.93723 5.36C6.26389 5.36 6.64056 5.34667 7.06723 5.32L7.09723 4.94Z" fill="white"/>
</svg>
