<svg width="23" height="22" viewBox="0 0 23 22" fill="none" xmlns="http://www.w3.org/2000/svg">
<path d="M14.5156 3.95312C15.5185 3.95312 16.4803 4.35151 17.1894 5.06063C17.8985 5.76975 18.2969 6.73153 18.2969 7.73438V14.2656C18.2969 15.2685 17.8985 16.2303 17.1894 16.9394C16.4803 17.6485 15.5185 18.0469 14.5156 18.0469H7.98438C6.98153 18.0469 6.01975 17.6485 5.31063 16.9394C4.60151 16.2303 4.20312 15.2685 4.20312 14.2656V7.73438C4.20312 6.73153 4.60151 5.76975 5.31063 5.06063C6.01975 4.35151 6.98153 3.95312 7.98438 3.95312H14.5156ZM14.5156 2.57812H7.98438C6.61811 2.58221 5.30896 3.12676 4.34286 4.09286C3.37676 5.05896 2.83221 6.36811 2.82812 7.73438V14.2656C2.83221 15.6319 3.37676 16.941 4.34286 17.9071C5.30896 18.8732 6.61811 19.4178 7.98438 19.4219H14.5156C15.8819 19.4178 17.191 18.8732 18.1571 17.9071C19.1232 16.941 19.6678 15.6319 19.6719 14.2656V7.73438C19.6678 6.36811 19.1232 5.05896 18.1571 4.09286C17.191 3.12676 15.8819 2.58221 14.5156 2.57812Z" fill="white"/>
<path d="M15.7427 5.5C15.5479 5.5 15.3575 5.55776 15.1955 5.66598C15.0335 5.77419 14.9073 5.928 14.8328 6.10796C14.7582 6.28792 14.7387 6.48594 14.7767 6.67698C14.8147 6.86802 14.9085 7.0435 15.0463 7.18123C15.184 7.31897 15.3595 7.41276 15.5505 7.45076C15.7416 7.48876 15.9396 7.46926 16.1195 7.39472C16.2995 7.32018 16.4533 7.19395 16.5615 7.03199C16.6697 6.87004 16.7275 6.67963 16.7275 6.48484C16.7275 6.35551 16.702 6.22745 16.6525 6.10796C16.603 5.98847 16.5305 5.87991 16.439 5.78845C16.3476 5.697 16.239 5.62446 16.1195 5.57497C16.0001 5.52547 15.872 5.5 15.7427 5.5Z" fill="white"/>
<path d="M11.2958 7.98682C11.8969 7.98648 12.4847 8.16446 12.9847 8.49823C13.4847 8.832 13.8744 9.30657 14.1046 9.8619C14.3348 10.4172 14.3951 11.0284 14.2779 11.618C14.1607 12.2076 13.8713 12.7492 13.4462 13.1743C13.0211 13.5994 12.4795 13.8888 11.8899 14.006C11.3003 14.1232 10.6892 14.0629 10.1338 13.8327C9.5785 13.6025 9.10393 13.2127 8.77016 12.7127C8.43639 12.2128 8.25841 11.625 8.25875 11.0239C8.26011 10.2188 8.58052 9.44711 9.14978 8.87786C9.71904 8.3086 10.4907 7.98819 11.2958 7.98682ZM11.2958 6.61182C10.4231 6.61352 9.57055 6.87387 8.8458 7.35997C8.12106 7.84607 7.55668 8.53609 7.22398 9.34285C6.89128 10.1496 6.8052 11.0369 6.97661 11.8925C7.14803 12.7482 7.56924 13.5339 8.18703 14.1502C8.80482 14.7665 9.59145 15.1859 10.4475 15.3553C11.3036 15.5248 12.1906 15.4366 12.9966 15.102C13.8026 14.7674 14.4913 14.2015 14.9757 13.4756C15.4601 12.7497 15.7185 11.8965 15.7181 11.0239C15.7179 10.4437 15.6033 9.86919 15.3808 9.33333C15.1584 8.79746 14.8325 8.31072 14.4217 7.90093C14.011 7.49115 13.5235 7.16637 12.9871 6.94517C12.4507 6.72397 11.876 6.6107 11.2958 6.61182Z" fill="white"/>
</svg>
