<svg width="20" height="20" viewBox="0 0 20 20" fill="none" xmlns="http://www.w3.org/2000/svg">
<path d="M6.125 16.5625H3.5C3.38397 16.5625 3.27269 16.5164 3.19064 16.4344C3.10859 16.3523 3.0625 16.241 3.0625 16.125V7.8125C3.0625 7.69647 3.10859 7.58519 3.19064 7.50314C3.27269 7.42109 3.38397 7.375 3.5 7.375H6.125C6.24103 7.375 6.35231 7.42109 6.43436 7.50314C6.51641 7.58519 6.5625 7.69647 6.5625 7.8125V16.125C6.5625 16.241 6.51641 16.3523 6.43436 16.4344C6.35231 16.5164 6.24103 16.5625 6.125 16.5625ZM3.9375 15.6875H5.6875V8.25H3.9375V15.6875Z" fill="white"/>
<path d="M15.75 16.5626H13.125C13.009 16.5626 12.8977 16.5165 12.8156 16.4344C12.7336 16.3524 12.6875 16.2411 12.6875 16.1251V10.5356C12.2087 10.5919 11.7546 10.779 11.375 11.0763V16.1251C11.375 16.2411 11.3289 16.3524 11.2469 16.4344C11.1648 16.5165 11.0535 16.5626 10.9375 16.5626H8.3125C8.19647 16.5626 8.08519 16.5165 8.00314 16.4344C7.92109 16.3524 7.875 16.2411 7.875 16.1251V7.81257C7.875 7.69654 7.92109 7.58526 8.00314 7.50321C8.08519 7.42117 8.19647 7.37507 8.3125 7.37507H10.9375C11.0535 7.37507 11.1648 7.42117 11.2469 7.50321C11.3289 7.58526 11.375 7.69654 11.375 7.81257V7.9104C12.1907 7.49871 13.1021 7.31389 14.0137 7.37529C14.5914 7.37879 15.1447 7.6108 15.5519 8.02064C15.9592 8.43047 16.1877 8.98481 16.1875 9.56257V16.1251C16.1875 16.2411 16.1414 16.3524 16.0594 16.4344C15.9773 16.5165 15.866 16.5626 15.75 16.5626ZM13.5625 15.6876H15.3125V9.56257C15.3121 9.21459 15.1737 8.88097 14.9277 8.63492C14.6816 8.38886 14.348 8.25045 14 8.25007C12.9956 8.16892 11.9957 8.45266 11.1836 9.04925C11.1178 9.09399 11.0411 9.11996 10.9617 9.12436C10.8823 9.12876 10.8032 9.11143 10.7329 9.07424C10.6626 9.03704 10.6038 8.98139 10.5627 8.91326C10.5217 8.84513 10.5 8.7671 10.5 8.68757V8.25007H8.75V15.6876H10.5V10.8751C10.5 10.759 10.5461 10.6478 10.6282 10.5658C11.1785 10.0603 11.876 9.74407 12.6188 9.6632C12.7369 9.65221 12.856 9.66591 12.9685 9.70342C13.0811 9.74093 13.1846 9.80143 13.2725 9.88107C13.3637 9.96399 13.4366 10.065 13.4866 10.1777C13.5365 10.2904 13.5624 10.4123 13.5625 10.5356V15.6876Z" fill="white"/>
<path d="M4.8125 6.9375C4.46638 6.9375 4.12804 6.83487 3.84025 6.64257C3.55247 6.45028 3.32816 6.17697 3.19571 5.8572C3.06326 5.53743 3.0286 5.18556 3.09613 4.84609C3.16365 4.50663 3.33032 4.19481 3.57506 3.95006C3.81981 3.70532 4.13163 3.53865 4.47109 3.47113C4.81056 3.4036 5.16243 3.43826 5.4822 3.57071C5.80197 3.70316 6.07528 3.92747 6.26757 4.21525C6.45987 4.50304 6.5625 4.84138 6.5625 5.1875C6.56201 5.65148 6.37748 6.09632 6.0494 6.4244C5.72132 6.75248 5.27648 6.93701 4.8125 6.9375ZM4.8125 4.3125C4.63944 4.3125 4.47027 4.36382 4.32638 4.45997C4.18248 4.55611 4.07033 4.69277 4.00411 4.85265C3.93788 5.01254 3.92055 5.18847 3.95431 5.35821C3.98808 5.52794 4.07141 5.68385 4.19378 5.80622C4.31615 5.92859 4.47206 6.01193 4.6418 6.04569C4.81153 6.07945 4.98746 6.06212 5.14735 5.9959C5.30723 5.92967 5.44389 5.81752 5.54004 5.67363C5.63618 5.52973 5.6875 5.36056 5.6875 5.1875C5.68723 4.95552 5.59496 4.73311 5.43093 4.56908C5.26689 4.40504 5.04448 4.31277 4.8125 4.3125Z" fill="white"/>
<path d="M17.0625 19.625H2.1875C1.60755 19.6243 1.05155 19.3936 0.641458 18.9835C0.23137 18.5735 0.000683134 18.0175 0 17.4375V2.5625C0.000683134 1.98255 0.23137 1.42655 0.641458 1.01646C1.05155 0.60637 1.60755 0.375683 2.1875 0.375H17.0625C17.6425 0.375683 18.1985 0.60637 18.6085 1.01646C19.0186 1.42655 19.2493 1.98255 19.25 2.5625V17.4375C19.2493 18.0175 19.0186 18.5735 18.6085 18.9835C18.1985 19.3936 17.6425 19.6243 17.0625 19.625ZM2.1875 1.25C1.83952 1.25038 1.5059 1.38879 1.25984 1.63484C1.01379 1.8809 0.875382 2.21452 0.875 2.5625V17.4375C0.875382 17.7855 1.01379 18.1191 1.25984 18.3652C1.5059 18.6112 1.83952 18.7496 2.1875 18.75H17.0625C17.4105 18.7496 17.7441 18.6112 17.9902 18.3652C18.2362 18.1191 18.3746 17.7855 18.375 17.4375V2.5625C18.3746 2.21452 18.2362 1.8809 17.9902 1.63484C17.7441 1.38879 17.4105 1.25038 17.0625 1.25H2.1875Z" fill="white"/>
</svg>
