<svg width="110" height="107" viewBox="0 0 110 107" fill="none" xmlns="http://www.w3.org/2000/svg">
<path d="M45.7203 7.10849C49.0793 -1.2562 60.9207 -1.2562 64.2797 7.10849L71.7988 25.8325C73.2292 29.3945 76.5723 31.8234 80.402 32.0831L100.533 33.4481C109.526 34.0579 113.186 45.3197 106.268 51.0992L90.7842 64.0363C87.8385 66.4974 86.5616 70.4275 87.4981 74.15L92.4207 93.7176C94.6199 102.459 85.04 109.419 77.4058 104.627L60.3171 93.8981C57.0661 91.8571 52.9339 91.8571 49.6829 93.8981L32.5942 104.627C24.96 109.419 15.3801 102.459 17.5793 93.7176L22.5019 74.15C23.4384 70.4275 22.1615 66.4974 19.2158 64.0363L3.73171 51.0992C-3.18559 45.3198 0.473608 34.0579 9.4669 33.4481L29.598 32.0831C33.4277 31.8234 36.7708 29.3945 38.2012 25.8325L45.7203 7.10849Z" fill="url(#paint0_linear_592_236)"/>
<defs>
<linearGradient id="paint0_linear_592_236" x1="55" y1="-16" x2="55" y2="132" gradientUnits="userSpaceOnUse">
<stop stop-color="#62ABF1"/>
<stop offset="1" stop-color="#39638B"/>
</linearGradient>
</defs>
</svg>
